<svg width="506" height="566" viewBox="0 0 506 566" fill="none" xmlns="http://www.w3.org/2000/svg">
<path d="M251.479 565.016C169.46 565.016 102.971 561.135 102.971 556.347C102.971 551.56 169.46 547.678 251.479 547.678C333.497 547.678 399.986 551.56 399.986 556.347C399.986 561.135 333.497 565.016 251.479 565.016Z" fill="#F5F5F5"/>
<path d="M366.679 191.782C367.258 190.949 368.007 190.247 368.876 189.723C369.745 189.2 370.716 188.866 371.723 188.743C372.731 188.621 373.753 188.713 374.723 189.013C375.692 189.314 376.587 189.816 377.349 190.486C378.136 191.165 378.795 191.979 379.293 192.891C380.844 192.078 382.605 191.756 384.344 191.967C386.082 192.178 387.716 192.912 389.027 194.072C390.719 195.554 391.897 197.535 392.391 199.73C392.885 201.924 392.671 204.219 391.778 206.283C393.312 207.798 394.264 209.805 394.464 211.952C394.664 214.099 394.1 216.247 392.872 218.019L392.498 218.494C393.269 219.191 393.764 220.142 393.891 221.174C394.018 222.205 393.769 223.248 393.189 224.11C392.91 224.516 392.549 224.858 392.128 225.114C391.708 225.37 391.238 225.534 390.75 225.596C390.261 225.657 389.765 225.614 389.295 225.47C388.824 225.325 388.39 225.083 388.019 224.758L361.624 202.366C360.413 201.31 359.636 199.843 359.442 198.248C359.248 196.653 359.651 195.042 360.573 193.726C361.242 192.784 362.2 192.085 363.301 191.734C364.402 191.383 365.588 191.4 366.679 191.782Z" fill="#5E8B25"/>
<path opacity="0.8" d="M366.679 191.782C367.258 190.949 368.007 190.247 368.876 189.723C369.745 189.2 370.716 188.866 371.723 188.743C372.731 188.621 373.753 188.713 374.723 189.013C375.692 189.314 376.587 189.816 377.349 190.486C378.136 191.165 378.795 191.979 379.293 192.891C380.844 192.078 382.605 191.756 384.344 191.967C386.082 192.178 387.716 192.912 389.027 194.072C390.719 195.554 391.897 197.535 392.391 199.73C392.885 201.924 392.671 204.219 391.778 206.283C393.312 207.798 394.264 209.805 394.464 211.952C394.664 214.099 394.1 216.247 392.872 218.019L392.498 218.494C393.269 219.191 393.764 220.142 393.891 221.174C394.018 222.205 393.769 223.248 393.189 224.11C392.91 224.516 392.549 224.858 392.128 225.114C391.708 225.37 391.238 225.534 390.75 225.596C390.261 225.657 389.765 225.614 389.295 225.47C388.824 225.325 388.39 225.083 388.019 224.758L361.624 202.366C360.413 201.31 359.636 199.843 359.442 198.248C359.248 196.653 359.651 195.042 360.573 193.726C361.242 192.784 362.2 192.085 363.301 191.734C364.402 191.383 365.588 191.4 366.679 191.782Z" fill="white"/>
<path d="M442.509 421.578C443.742 422.075 444.856 422.827 445.779 423.784C446.701 424.741 447.411 425.882 447.862 427.132C448.314 428.383 448.496 429.714 448.397 431.04C448.299 432.366 447.921 433.656 447.29 434.826C446.661 436.03 445.811 437.105 444.784 437.994C446.272 439.738 447.198 441.891 447.439 444.17C447.681 446.45 447.227 448.749 446.138 450.767C444.737 453.356 442.555 455.436 439.901 456.711C437.248 457.986 434.26 458.39 431.363 457.866C429.876 460.26 427.594 462.055 424.916 462.934C422.238 463.814 419.336 463.722 416.719 462.675L416.013 462.344C415.365 463.544 414.298 464.465 413.015 464.929C411.733 465.394 410.324 465.371 409.058 464.864C408.459 464.626 407.918 464.264 407.469 463.802C407.02 463.34 406.674 462.789 406.454 462.183C406.234 461.578 406.144 460.933 406.191 460.291C406.237 459.648 406.419 459.023 406.725 458.456L427.533 418.237C428.525 416.401 430.158 414.994 432.121 414.285C434.083 413.576 436.238 413.614 438.175 414.392C439.581 414.955 440.765 415.961 441.548 417.258C442.33 418.555 442.667 420.071 442.509 421.578Z" fill="#5E8B25"/>
<path opacity="0.8" d="M442.509 421.578C443.742 422.075 444.856 422.827 445.779 423.784C446.701 424.741 447.411 425.882 447.862 427.132C448.314 428.383 448.496 429.714 448.397 431.04C448.299 432.366 447.921 433.656 447.29 434.826C446.661 436.03 445.811 437.105 444.784 437.994C446.272 439.738 447.198 441.891 447.439 444.17C447.681 446.45 447.227 448.749 446.138 450.767C444.737 453.356 442.555 455.436 439.901 456.711C437.248 457.986 434.26 458.39 431.363 457.866C429.876 460.26 427.594 462.055 424.916 462.934C422.238 463.814 419.336 463.722 416.719 462.675L416.013 462.344C415.365 463.544 414.298 464.465 413.015 464.929C411.733 465.394 410.324 465.371 409.058 464.864C408.459 464.626 407.918 464.264 407.469 463.802C407.02 463.34 406.674 462.789 406.454 462.183C406.234 461.578 406.144 460.933 406.191 460.291C406.237 459.648 406.419 459.023 406.725 458.456L427.533 418.237C428.525 416.401 430.158 414.994 432.121 414.285C434.083 413.576 436.238 413.614 438.175 414.392C439.581 414.955 440.765 415.961 441.548 417.258C442.33 418.555 442.667 420.071 442.509 421.578Z" fill="white"/>
<path d="M55.2786 284C55.1509 283.966 55.0258 283.922 54.9041 283.87C54.0697 283.515 53.3202 282.987 52.7052 282.32C52.0902 281.654 51.6237 280.864 51.3364 280.004C51.0492 279.144 50.9479 278.232 51.0392 277.33C51.1304 276.428 51.4122 275.555 51.8658 274.77C52.0949 274.371 52.3549 273.99 52.6434 273.632C50.1234 271.26 48.478 268.107 47.9736 264.683C47.4692 261.26 48.1353 257.766 49.8642 254.768C51.5671 251.711 54.1174 249.21 57.2082 247.568C55.9803 245.184 55.3688 242.53 55.4291 239.849C55.4895 237.168 56.2199 234.544 57.5537 232.218C58.895 229.853 60.7214 227.8 62.9128 226.191C65.1043 224.583 67.6112 223.457 70.269 222.887C69.9368 221.342 70.1773 219.73 70.9458 218.35C71.9049 216.685 73.4436 215.431 75.2684 214.828C77.0932 214.225 79.0761 214.316 80.8386 215.082C82.095 215.634 83.1473 216.566 83.8482 217.746C86.1615 216.32 88.7851 215.475 91.4954 215.282C94.2057 215.089 96.9225 215.554 99.4146 216.637C101.212 217.406 102.826 218.546 104.151 219.984C105.475 221.422 106.48 223.124 107.099 224.979C107.718 226.833 107.938 228.798 107.742 230.743C107.547 232.688 106.942 234.57 105.967 236.264L76.0578 290.207C74.5921 292.748 72.2419 294.661 69.4557 295.58C66.6694 296.499 63.6423 296.36 60.9522 295.189C58.8445 294.285 57.1215 292.67 56.0844 290.624C55.0473 288.579 54.7621 286.234 55.2786 284Z" fill="#5E8B25"/>
<path opacity="0.8" d="M55.2786 284C55.1509 283.966 55.0258 283.922 54.9041 283.87C54.0697 283.515 53.3202 282.987 52.7052 282.32C52.0902 281.654 51.6237 280.864 51.3364 280.004C51.0492 279.144 50.9479 278.232 51.0392 277.33C51.1304 276.428 51.4122 275.555 51.8658 274.77C52.0949 274.371 52.3549 273.99 52.6434 273.632C50.1234 271.26 48.478 268.107 47.9736 264.683C47.4692 261.26 48.1353 257.766 49.8642 254.768C51.5671 251.711 54.1174 249.21 57.2082 247.568C55.9803 245.184 55.3688 242.53 55.4291 239.849C55.4895 237.168 56.2199 234.544 57.5537 232.218C58.895 229.853 60.7214 227.8 62.9128 226.191C65.1043 224.583 67.6112 223.457 70.269 222.887C69.9368 221.342 70.1773 219.73 70.9458 218.35C71.9049 216.685 73.4436 215.431 75.2684 214.828C77.0932 214.225 79.0761 214.316 80.8386 215.082C82.095 215.634 83.1473 216.566 83.8482 217.746C86.1615 216.32 88.7851 215.475 91.4954 215.282C94.2057 215.089 96.9225 215.554 99.4146 216.637C101.212 217.406 102.826 218.546 104.151 219.984C105.475 221.422 106.48 223.124 107.099 224.979C107.718 226.833 107.938 228.798 107.742 230.743C107.547 232.688 106.942 234.57 105.967 236.264L76.0578 290.207C74.5921 292.748 72.2419 294.661 69.4557 295.58C66.6694 296.499 63.6423 296.36 60.9522 295.189C58.8445 294.285 57.1215 292.67 56.0844 290.624C55.0473 288.579 54.7621 286.234 55.2786 284Z" fill="white"/>
<path d="M410.374 388.539C412.443 378.106 413.485 367.495 413.485 356.859H412.131C412.133 367.433 411.096 377.981 409.035 388.352L410.374 388.539Z" fill="#5E8B25"/>
<path d="M99.9537 305.739C101.921 299.909 104.224 294.197 106.851 288.632L105.613 288.042C102.966 293.664 100.644 299.433 98.6577 305.322L99.9537 305.739Z" fill="#5E8B25"/>
<path d="M109.746 282.829C114.351 274.018 119.765 265.654 125.917 257.845L124.851 257.01C118.643 264.88 113.181 273.312 108.536 282.195L109.746 282.829Z" fill="#5E8B25"/>
<path d="M411.886 348.032L413.326 347.946C413.11 344.23 412.779 340.501 412.333 336.843L410.979 337.016C411.354 340.674 411.685 344.389 411.886 348.032Z" fill="#5E8B25"/>
<path d="M251.859 513.718C165.228 513.718 95.0001 443.49 95.0001 356.859C95.0001 270.228 165.228 200 251.859 200C338.49 200 408.719 270.228 408.719 356.859C408.719 443.49 338.49 513.718 251.859 513.718Z" fill="#5BB0CF" fill-opacity="0.8"/>
<g opacity="0.3">
<path opacity="0.3" d="M377.831 283.837C378.896 278.134 379.856 272.629 380.711 267.32C387.335 276.819 392.884 287.024 397.256 297.747C387.58 292.995 377.845 283.808 377.831 283.837Z" fill="white"/>
<path opacity="0.3" d="M348.627 462.426C344.927 457.386 342.291 452.533 343.933 447.493C345.575 442.453 364.511 436.894 364.41 436.88C368.826 434.115 373.194 431.312 377.514 428.47C377.544 424.57 379.094 420.835 381.834 418.059C383.276 416.772 384.972 415.802 386.812 415.212C388.653 414.621 390.597 414.424 392.519 414.632C395.917 410.053 399.229 405.44 402.455 400.794C393.372 431.889 374.886 459.409 349.535 479.576C348.757 477.632 345.704 469.366 348.627 462.426Z" fill="white"/>
<path opacity="0.3" d="M354.215 245.389L348.786 247.995C345.128 241.472 341.413 235.323 337.655 229.65C326.639 224.638 315.579 220.03 304.736 215.898C303.383 213.018 302.015 210.253 300.661 207.762C320.418 214.227 338.687 224.566 354.402 238.174C354.359 240.522 354.315 242.912 354.215 245.389Z" fill="white"/>
<path opacity="0.3" d="M301.87 237.598C295.938 238.131 291.891 230.211 291.906 230.298C292.77 228.57 293.619 226.885 294.454 225.243C299.984 226.885 305.533 228.589 311.101 230.355C311.13 230.283 307.818 236.936 301.87 237.598Z" fill="white"/>
<path opacity="0.3" d="M267.339 276.032C269.931 271.03 272.466 266.173 274.943 261.459C276.037 258.579 277.102 255.814 278.168 253.078C279.608 255.339 281.192 257.643 282.704 259.976L277.39 267.982C278.466 272.725 279.55 277.587 280.645 282.57C276.19 280.314 271.755 278.134 267.339 276.032Z" fill="white"/>
<path opacity="0.3" d="M290.02 269.149C290.596 272.446 291.186 275.816 291.748 279.229L284.245 275.715C283.093 273.382 281.956 271.064 280.804 268.789L285.196 265.779L290.02 269.149Z" fill="white"/>
<path opacity="0.3" d="M165.647 467.667C165.171 465.349 164.711 462.944 164.207 460.467C168.339 463.794 172.487 467.019 176.605 470.101C178.146 474.421 179.73 478.568 181.328 482.341L180.392 484.962L175.813 484.674C172.443 479.59 169.016 473.874 165.647 467.667Z" fill="white"/>
</g>
<path d="M399.114 299.072C399.177 299.073 399.239 299.056 399.292 299.022C399.346 298.989 399.389 298.942 399.416 298.885C399.457 298.804 399.465 298.711 399.438 298.625C399.411 298.539 399.351 298.467 399.272 298.424C392.392 294.733 386.018 290.168 380.307 284.845L380.134 284.686C381.157 279.2 382.093 273.699 382.914 268.357C382.918 268.272 382.891 268.189 382.838 268.123C382.785 268.057 382.71 268.012 382.627 267.998C382.543 267.984 382.457 268.001 382.385 268.046C382.314 268.091 382.261 268.16 382.237 268.242C381.416 273.656 380.466 279.214 379.429 284.758C379.417 284.82 379.422 284.884 379.445 284.943C379.468 285.002 379.508 285.052 379.558 285.09L379.861 285.363C385.615 290.727 392.038 295.325 398.97 299.043C399.014 299.066 399.064 299.076 399.114 299.072Z" fill="#6D8517"/>
<path d="M350.73 249.306C350.777 249.318 350.826 249.318 350.873 249.306L356.288 246.714C356.342 246.686 356.389 246.645 356.425 246.595C356.46 246.545 356.482 246.486 356.49 246.426C356.576 244.251 356.633 241.947 356.677 239.226C356.679 239.181 356.672 239.136 356.656 239.094C356.64 239.053 356.616 239.014 356.585 238.982C356.554 238.95 356.517 238.924 356.476 238.907C356.435 238.889 356.39 238.88 356.345 238.88C356.258 238.88 356.173 238.915 356.111 238.977C356.049 239.039 356.014 239.123 356.014 239.211C356.014 241.89 355.913 244.122 355.827 246.224L350.873 248.6C347.216 242.091 343.515 236 339.886 230.514C339.853 230.456 339.803 230.411 339.742 230.384C328.827 225.43 317.797 220.822 306.925 216.675C305.6 213.795 304.246 211.102 302.907 208.654C302.892 208.606 302.865 208.561 302.83 208.523C302.795 208.486 302.752 208.457 302.705 208.438C302.657 208.419 302.606 208.411 302.554 208.414C302.503 208.418 302.453 208.433 302.409 208.458C302.364 208.483 302.325 208.518 302.296 208.559C302.266 208.601 302.246 208.649 302.237 208.7C302.228 208.75 302.231 208.802 302.245 208.852C302.258 208.901 302.283 208.947 302.317 208.986C303.656 211.448 305.024 214.184 306.363 217.093C306.407 217.168 306.472 217.228 306.55 217.266C317.422 221.413 328.453 226.021 339.368 230.974C343.025 236.504 346.755 242.638 350.441 249.219C350.48 249.254 350.526 249.28 350.576 249.295C350.625 249.31 350.678 249.314 350.73 249.306Z" fill="#6D8517"/>
<path d="M234.853 501.608C234.921 501.605 234.986 501.584 235.042 501.546C235.098 501.507 235.143 501.454 235.17 501.392C236.984 496.813 239.144 490.765 241.578 483.406C243.09 479.994 244.688 476.307 246.301 472.448C246.326 472.399 246.339 472.345 246.339 472.29C246.339 472.235 246.326 472.18 246.301 472.131C244.184 469.035 241.981 465.81 239.864 462.526C241.146 457.371 242.485 451.899 243.867 446.182C246.301 442.87 248.792 439.458 251.254 436.03C251.276 435.988 251.287 435.941 251.287 435.894C251.287 435.846 251.276 435.799 251.254 435.757C250.506 432.373 249.814 428.902 248.979 425.374C254.178 423.114 259.491 420.766 264.819 418.405C273.33 419.845 281.768 421.285 289.875 422.725C289.93 422.738 289.987 422.735 290.041 422.718C290.094 422.7 290.142 422.667 290.178 422.624C297.118 415.064 304.16 407.187 311.144 399.21C311.185 399.143 311.214 399.07 311.23 398.994C311.504 390.656 311.706 382.016 311.835 373.318C311.833 373.245 311.808 373.175 311.763 373.117C306.378 365.917 300.834 358.717 295.304 351.445L294.138 344.936C294.119 344.871 294.084 344.812 294.037 344.763C291.56 342.243 289.069 339.738 286.563 337.218C286.53 337.211 286.496 337.211 286.462 337.218L281.538 335.086C270.954 332.768 260.326 330.464 249.858 328.232C249.805 328.218 249.75 328.218 249.697 328.23C249.645 328.243 249.596 328.268 249.555 328.304C242.355 334.539 234.954 340.962 227.595 347.37C227.595 345.814 227.595 344.259 227.595 342.704C227.596 342.632 227.575 342.561 227.533 342.501C227.492 342.442 227.433 342.397 227.365 342.373L223.822 341.206C223.753 341.178 223.676 341.178 223.606 341.206L210.33 345.915H199.429L193.957 344.374C193.957 342.661 193.957 340.962 193.957 339.262L205.347 335.086L205.491 334.986C208.371 331.549 211.251 328.112 214.131 324.675C214.174 324.631 214.203 324.576 214.218 324.517C214.678 321.637 215.154 318.642 215.658 315.733L221.418 318.944L216.118 325.87C216.076 325.929 216.053 326 216.053 326.072C216.053 326.144 216.076 326.215 216.118 326.274L220.165 331.63C220.196 331.669 220.235 331.701 220.28 331.724C220.325 331.746 220.374 331.758 220.424 331.76C220.472 331.765 220.521 331.759 220.566 331.741C220.611 331.724 220.651 331.696 220.683 331.659C222.728 329.451 224.773 327.262 226.818 325.093C226.85 325.05 226.875 325.001 226.89 324.949C228.229 320.096 229.582 315.258 230.922 310.549C234.32 308.168 237.709 305.816 241.088 303.493L243.363 304.285C240.195 307.875 237.018 311.499 233.83 315.157C233.801 315.195 233.779 315.239 233.766 315.286C233.754 315.333 233.751 315.382 233.758 315.43C234.19 317.821 234.637 320.211 235.083 322.63C235.093 322.689 235.118 322.744 235.156 322.79C235.194 322.835 235.243 322.87 235.299 322.89L238.05 323.826C238.095 323.846 238.144 323.857 238.194 323.857C238.243 323.857 238.292 323.846 238.338 323.826C238.381 323.803 238.417 323.77 238.445 323.73C238.473 323.69 238.49 323.644 238.496 323.595L239.49 317.216C243.838 313.549 248.158 309.915 252.45 306.315L260.053 305.653L264.373 307.842C266.662 313.299 268.981 318.814 271.285 324.373C271.31 324.426 271.344 324.475 271.386 324.517C275.072 327.33 278.758 330.147 282.445 332.97C282.498 332.997 282.557 333.012 282.618 333.012C282.678 333.012 282.737 332.997 282.79 332.97L291.099 329.312C291.152 329.289 291.198 329.253 291.233 329.208C291.268 329.163 291.291 329.109 291.301 329.053C291.718 325.856 292.136 322.688 292.539 319.52C292.021 314.97 291.488 310.52 290.955 306.128C290.945 306.05 290.908 305.979 290.85 305.926C290.792 305.873 290.717 305.843 290.638 305.84L275.403 305.048C275.302 302.254 275.216 299.461 275.101 296.71L281.624 289.122C281.658 289.083 281.684 289.037 281.699 288.987C281.714 288.937 281.718 288.885 281.71 288.834C281.702 288.784 281.682 288.738 281.652 288.698C281.622 288.658 281.583 288.625 281.538 288.603C278.235 286.75 274.952 284.917 271.688 283.102C268.894 280.28 266.125 277.501 263.379 274.765C263.35 274.728 263.31 274.703 263.264 274.693C260.658 273.613 258.066 272.533 255.474 271.482C255.718 268.098 255.963 264.771 256.194 261.531C256.203 261.45 256.181 261.368 256.133 261.301C256.085 261.235 256.014 261.189 255.934 261.171L252.925 260.509C252.869 260.494 252.811 260.495 252.755 260.51C252.699 260.525 252.649 260.555 252.608 260.595C249.642 263.475 246.603 266.456 243.608 269.437C238.323 268.933 232.995 268.443 227.768 267.997C227.926 266.557 228.099 265.117 228.258 263.59C228.264 263.538 228.264 263.485 228.258 263.432L227.178 260.552C227.984 259.112 228.79 257.744 229.611 256.347C229.646 256.291 229.664 256.226 229.664 256.16C229.664 256.094 229.646 256.029 229.611 255.973L227.566 253.266L227.437 251.422L231.757 248.974C231.803 248.946 231.842 248.908 231.871 248.864C231.901 248.819 231.921 248.768 231.93 248.715C232.39 245.288 232.87 241.966 233.37 238.75C233.384 238.679 233.384 238.606 233.37 238.534C231.555 235.381 229.77 232.299 228.07 229.39L233.672 229.491C235.674 233.595 237.819 238.131 240.051 242.797C239.648 247.362 239.245 252.128 238.856 256.952C238.851 257.002 238.857 257.053 238.875 257.101C238.892 257.148 238.92 257.191 238.957 257.226C240.954 259.232 242.979 261.267 245.034 263.331C245.09 263.372 245.158 263.394 245.228 263.394C245.298 263.394 245.366 263.372 245.422 263.331C250.938 260.61 256.539 257.888 262.069 255.253C262.126 255.225 262.173 255.182 262.206 255.129C262.24 255.075 262.257 255.013 262.256 254.95C262.333 250.563 262.395 246.344 262.443 242.293C262.445 242.233 262.432 242.174 262.404 242.121C262.376 242.068 262.335 242.023 262.285 241.99C259.731 240.464 257.211 238.971 254.725 237.512C251.067 230.211 247.626 223.659 244.486 218.014C244.453 217.957 244.403 217.912 244.342 217.885C239.706 215.638 235.098 213.565 230.634 211.506C230.593 211.488 230.549 211.479 230.504 211.479C230.459 211.479 230.415 211.488 230.374 211.506C221.734 214.803 212.72 218.504 203.677 222.536C203.606 222.567 203.548 222.621 203.512 222.689C203.475 222.756 203.462 222.834 203.475 222.91C203.686 224.082 203.902 225.277 204.123 226.496C204.143 226.577 204.188 226.65 204.254 226.702C204.319 226.754 204.4 226.783 204.483 226.784L208.933 226.626L216.493 225.531C213.397 228.627 210.2 231.925 206.989 235.381L202.222 235.093C201.963 233.149 201.718 231.248 201.488 229.419C201.473 229.322 201.421 229.235 201.344 229.174C196.419 225.661 191.696 222.363 187.29 219.411C187.243 219.398 187.193 219.398 187.146 219.411L181.112 218.605C181.067 218.599 181.02 218.602 180.976 218.614C180.932 218.626 180.89 218.646 180.854 218.675C180.818 218.703 180.788 218.738 180.765 218.778C180.743 218.818 180.729 218.862 180.723 218.907C180.717 218.951 180.72 218.995 180.731 219.038C180.742 219.08 180.762 219.12 180.789 219.155C180.816 219.19 180.849 219.219 180.887 219.241C180.925 219.262 180.968 219.276 181.011 219.282L186.973 220.074C191.293 222.954 195.973 226.237 200.826 229.707C201.07 231.579 201.315 233.523 201.589 235.467C201.599 235.546 201.635 235.62 201.693 235.675C201.751 235.73 201.826 235.764 201.906 235.77L207.104 236.086C207.203 236.081 207.299 236.046 207.378 235.986C210.877 232.227 214.347 228.627 217.702 225.315C217.743 225.259 217.765 225.191 217.765 225.121C217.765 225.051 217.743 224.983 217.702 224.926C217.679 224.857 217.631 224.799 217.566 224.765C217.502 224.73 217.427 224.721 217.357 224.739C214.477 225.128 211.597 225.546 208.818 225.963L204.685 226.107C204.498 225.07 204.31 224.062 204.138 223.069C213.037 219.109 221.878 215.451 230.418 212.211C234.738 214.17 239.346 216.272 243.882 218.475C247.021 224.106 250.448 230.643 254.091 237.93C254.128 237.988 254.177 238.037 254.235 238.074C256.693 239.514 259.184 240.992 261.709 242.509C261.709 246.426 261.594 250.515 261.522 254.749C256.122 257.326 250.664 259.976 245.278 262.64C243.358 260.672 241.438 258.752 239.518 256.88C239.907 252.07 240.31 247.333 240.714 242.797C240.728 242.74 240.728 242.681 240.714 242.624C238.453 237.786 236.25 233.206 234.205 229.03C234.177 228.974 234.134 228.926 234.081 228.893C234.027 228.86 233.965 228.842 233.902 228.843L227.48 228.728C227.365 228.757 227.261 228.817 227.178 228.901C227.149 228.954 227.133 229.013 227.133 229.074C227.133 229.134 227.149 229.193 227.178 229.246C228.963 232.27 230.835 235.496 232.736 238.794C232.29 241.918 231.829 245.158 231.382 248.485L227.062 250.976C227.005 251.005 226.957 251.051 226.926 251.107C226.896 251.164 226.883 251.229 226.89 251.293L227.034 253.438C227.042 253.506 227.067 253.57 227.106 253.626L229.078 256.232C228.272 257.6 227.48 258.982 226.674 260.394C226.637 260.486 226.637 260.589 226.674 260.682L227.782 263.648C227.61 265.189 227.437 266.73 227.264 268.299C227.257 268.345 227.26 268.392 227.273 268.436C227.285 268.481 227.307 268.523 227.336 268.558C227.364 268.593 227.398 268.622 227.438 268.642C227.478 268.662 227.522 268.673 227.566 268.674C232.952 269.149 238.438 269.667 243.91 270.186C243.961 270.191 244.011 270.184 244.059 270.167C244.106 270.149 244.149 270.121 244.184 270.085C247.165 267.118 250.189 264.152 253.155 261.272L255.69 261.834C255.459 265.059 255.229 268.371 254.984 271.741C254.977 271.812 254.995 271.884 255.034 271.944C255.073 272.004 255.132 272.049 255.2 272.072L263.149 275.355C265.885 278.077 268.65 280.856 271.429 283.664H271.515L281.048 288.992L274.698 296.365C274.677 296.44 274.677 296.52 274.698 296.595C274.798 299.475 274.914 302.442 275 305.394C275.007 305.478 275.045 305.556 275.106 305.615C275.167 305.673 275.247 305.707 275.331 305.71L290.581 306.502C291.114 310.822 291.632 315.142 292.136 319.462C291.747 322.472 291.33 325.582 290.926 328.707L283.093 332.034L272.264 323.754C269.96 318.176 267.651 312.656 265.338 307.194C265.306 307.12 265.25 307.059 265.179 307.021L260.672 304.731C260.643 304.717 260.611 304.71 260.578 304.71C260.546 304.71 260.514 304.717 260.485 304.731L252.666 305.408C252.597 305.41 252.531 305.435 252.478 305.48C248.101 309.118 243.709 312.8 239.302 316.525C239.243 316.583 239.202 316.659 239.187 316.741L238.237 322.846L236.062 322.112C235.63 319.827 235.213 317.552 234.81 315.286C238.064 311.542 241.314 307.837 244.558 304.17C244.583 304.12 244.595 304.066 244.595 304.011C244.595 303.956 244.583 303.902 244.558 303.853C244.546 303.799 244.519 303.749 244.481 303.709C244.443 303.668 244.395 303.639 244.342 303.622L241.462 302.6C241.415 302.579 241.363 302.568 241.311 302.568C241.259 302.568 241.208 302.579 241.16 302.6C237.685 304.99 234.214 307.39 230.749 309.8C230.714 309.819 230.685 309.846 230.662 309.879C230.64 309.911 230.625 309.948 230.619 309.987C229.266 314.787 227.917 319.621 226.573 324.488L220.813 330.694L217.17 325.87C218.955 323.523 220.755 321.19 222.555 318.843C222.577 318.801 222.588 318.754 222.588 318.706C222.588 318.659 222.577 318.612 222.555 318.57C222.529 318.474 222.467 318.391 222.382 318.339L215.83 314.696C215.781 314.671 215.727 314.658 215.672 314.658C215.617 314.658 215.563 314.671 215.514 314.696C215.465 314.719 215.422 314.753 215.39 314.795C215.357 314.838 215.335 314.888 215.326 314.941C214.822 317.979 214.333 321.046 213.886 324.114C211.006 327.483 208.16 330.872 205.347 334.28C201.507 335.682 197.667 337.088 193.827 338.499C193.762 338.524 193.706 338.567 193.665 338.624C193.624 338.68 193.601 338.747 193.597 338.816C193.597 340.688 193.597 342.56 193.597 344.432C193.592 344.506 193.614 344.578 193.659 344.637C193.704 344.695 193.769 344.735 193.842 344.749L199.602 346.39H210.862L224.082 341.696L227.264 342.762V348.032C227.26 348.099 227.276 348.166 227.31 348.223C227.344 348.281 227.395 348.327 227.456 348.355C227.517 348.383 227.584 348.392 227.651 348.38C227.717 348.369 227.778 348.338 227.826 348.291C235.314 341.754 242.859 335.216 250.232 328.837C260.586 331.069 271.141 333.358 281.624 335.648L286.419 337.736C288.877 340.203 291.325 342.675 293.763 345.152L294.93 351.632C294.916 351.684 294.916 351.738 294.93 351.79C300.445 358.99 305.974 366.262 311.374 373.39C311.245 382.03 311.043 390.555 310.77 398.806C303.858 406.698 296.888 414.502 290.019 421.976C281.941 420.637 273.531 419.211 265.05 417.656C264.984 417.634 264.913 417.634 264.848 417.656C259.434 420.061 254.005 422.466 248.706 424.77C248.632 424.801 248.572 424.857 248.535 424.928C248.499 424.999 248.488 425.08 248.504 425.158C249.282 428.73 250.045 432.243 250.808 435.67C248.346 439.069 245.883 442.467 243.464 445.75C243.458 445.793 243.458 445.837 243.464 445.88C242.024 451.64 240.699 457.213 239.403 462.44C239.369 462.528 239.369 462.626 239.403 462.714C241.549 465.982 243.723 469.208 245.811 472.29C244.227 476.077 242.658 479.706 241.16 483.075C238.755 490.275 236.638 496.294 234.838 500.845C230.158 500.456 225.45 500.038 220.842 499.592C216.666 496.813 212.202 493.544 207.781 489.901C206.571 488.634 205.333 487.28 204.109 485.926C204.062 485.867 203.996 485.826 203.922 485.811L203.389 485.71L200.509 485.163C200.509 482.744 200.509 480.152 200.509 477.459C200.51 477.402 200.496 477.345 200.468 477.294C200.44 477.244 200.4 477.201 200.35 477.171C196.03 474.464 191.71 471.613 187.462 468.675C186.987 461.144 186.685 452.634 186.57 443.346C186.565 443.255 186.529 443.169 186.469 443.101C179.269 436.246 172.069 428.974 164.869 421.501C162.291 415.741 159.714 409.765 157.194 403.717C161.974 404.826 166.914 405.963 171.91 407.086C171.983 407.099 172.058 407.09 172.125 407.059C172.192 407.028 172.248 406.977 172.285 406.914C180.075 391.707 188.614 375.637 197.672 359.134C197.715 359.064 197.729 358.979 197.71 358.898C197.691 358.817 197.641 358.747 197.571 358.702L193.338 355.65C193.287 355.63 193.23 355.63 193.179 355.65L189.55 355.174C189.482 355.158 189.41 355.167 189.346 355.198C189.283 355.23 189.233 355.283 189.205 355.347C183.531 365.874 178.002 376.4 172.789 386.61V386.725C172.27 390.8 171.781 394.789 171.349 398.562C164.667 395.25 158.101 391.952 151.851 388.741C147.531 383.456 143.211 378.099 139.136 372.814C141.498 369.747 143.931 366.622 146.336 363.512H154.04C154.125 363.511 154.206 363.481 154.27 363.426C158.59 359.365 163.198 355.117 167.907 350.811C167.948 350.773 167.979 350.725 167.999 350.673C168.019 350.621 168.027 350.565 168.022 350.509C168.013 350.452 167.99 350.399 167.954 350.354C167.919 350.308 167.873 350.273 167.821 350.25L161.024 347.024C160.968 346.99 160.903 346.972 160.837 346.972C160.771 346.972 160.706 346.99 160.65 347.024C156.142 350.941 151.678 354.858 147.402 358.645L123.238 361.842C123.19 361.848 123.144 361.865 123.104 361.893C123.064 361.92 123.031 361.957 123.008 362C120.387 366.018 117.781 370.064 115.275 374.067L111.474 372.944C111.431 372.924 111.384 372.913 111.337 372.913C111.289 372.913 111.243 372.924 111.2 372.944C111.157 372.967 111.12 373 111.093 373.04C111.065 373.08 111.048 373.126 111.042 373.174C110.35 377.581 109.717 381.944 109.155 386.134C107.514 392.614 105.958 399.339 104.533 406.064C104.516 406.152 104.533 406.243 104.581 406.318C104.63 406.393 104.705 406.447 104.792 406.467C104.836 406.478 104.881 406.479 104.925 406.472C104.969 406.465 105.011 406.448 105.049 406.424C105.087 406.4 105.119 406.368 105.144 406.331C105.169 406.294 105.187 406.252 105.195 406.208C106.635 399.483 108.176 392.773 109.832 386.264C110.379 382.16 110.984 377.926 111.661 373.65L115.333 374.73C115.404 374.751 115.481 374.748 115.551 374.722C115.621 374.696 115.681 374.648 115.722 374.586C118.242 370.568 120.848 366.478 123.483 362.446L147.589 359.25C147.658 359.248 147.724 359.222 147.776 359.178C152.024 355.405 156.416 351.517 160.938 347.658L167.072 350.538C162.536 354.714 158.101 358.803 153.91 362.734H146.178C146.125 362.731 146.072 362.742 146.024 362.764C145.977 362.787 145.935 362.821 145.904 362.864C143.37 366.09 140.835 369.33 138.402 372.512C138.354 372.571 138.328 372.645 138.328 372.721C138.328 372.797 138.354 372.871 138.402 372.93C142.578 378.301 146.926 383.744 151.362 389.13L151.477 389.216C157.885 392.499 164.624 395.898 171.478 399.296C171.527 399.321 171.582 399.334 171.637 399.334C171.692 399.334 171.746 399.321 171.795 399.296C171.842 399.269 171.882 399.232 171.912 399.187C171.942 399.142 171.962 399.091 171.968 399.037C172.429 395.134 172.933 391.016 173.48 386.782C178.65 376.702 184.122 366.234 189.752 355.794L193.064 356.226L196.995 359.106C188.024 375.421 179.571 391.333 171.853 406.395C166.741 405.243 161.658 404.077 156.762 402.925C156.701 402.909 156.638 402.912 156.579 402.932C156.52 402.953 156.468 402.99 156.43 403.04C156.395 403.091 156.376 403.151 156.376 403.213C156.376 403.275 156.395 403.335 156.43 403.386C159.037 409.678 161.701 415.899 164.379 421.861L164.451 421.947C171.651 429.421 178.851 436.678 185.965 443.547C186.08 452.85 186.382 461.389 186.858 468.92C186.861 468.971 186.875 469.021 186.9 469.066C186.925 469.111 186.96 469.149 187.002 469.179C191.322 472.059 195.642 474.939 199.89 477.69C199.89 480.426 199.89 483.046 199.89 485.494C199.888 485.573 199.915 485.65 199.965 485.71C200.016 485.771 200.086 485.812 200.163 485.826L203.389 486.43L203.806 486.502C205.002 487.842 206.211 489.166 207.435 490.448C212 494.163 216.435 497.446 220.64 500.254H220.798C225.522 500.701 230.346 501.133 235.198 501.522L234.853 501.608Z" fill="white"/>
<path d="M96.59 131.973L110.99 117.573C111.181 117.382 111.44 117.275 111.71 117.275C111.98 117.275 112.239 117.382 112.43 117.573C112.621 117.764 112.728 118.023 112.728 118.293C112.728 118.563 112.621 118.822 112.43 119.013L105.921 125.507L119.63 139.216C119.725 139.311 119.8 139.423 119.851 139.546C119.902 139.67 119.928 139.802 119.928 139.936C119.928 140.07 119.902 140.202 119.851 140.326C119.8 140.449 119.725 140.562 119.63 140.656C119.535 140.751 119.423 140.826 119.3 140.877C119.176 140.928 119.044 140.954 118.91 140.954C118.776 140.954 118.644 140.928 118.52 140.877C118.397 140.826 118.285 140.751 118.19 140.656L104.481 126.947L97.9724 133.456C97.8778 133.551 97.7656 133.626 97.642 133.677C97.5185 133.728 97.3861 133.754 97.2524 133.754C97.1186 133.754 96.9863 133.728 96.8627 133.677C96.7392 133.626 96.6269 133.551 96.5324 133.456C96.4378 133.362 96.3628 133.249 96.3117 133.126C96.2605 133.002 96.2341 132.87 96.2341 132.736C96.2341 132.602 96.2605 132.47 96.3117 132.346C96.3628 132.223 96.4378 132.111 96.5324 132.016L96.59 131.973Z" fill="#9E5A11"/>
<path opacity="0.3" d="M96.59 131.973L110.99 117.573C111.181 117.382 111.44 117.275 111.71 117.275C111.98 117.275 112.239 117.382 112.43 117.573C112.621 117.764 112.728 118.023 112.728 118.293C112.728 118.563 112.621 118.822 112.43 119.013L105.921 125.507L119.63 139.216C119.725 139.311 119.8 139.423 119.851 139.546C119.902 139.67 119.928 139.802 119.928 139.936C119.928 140.07 119.902 140.202 119.851 140.326C119.8 140.449 119.725 140.562 119.63 140.656C119.535 140.751 119.423 140.826 119.3 140.877C119.176 140.928 119.044 140.954 118.91 140.954C118.776 140.954 118.644 140.928 118.52 140.877C118.397 140.826 118.285 140.751 118.19 140.656L104.481 126.947L97.9724 133.456C97.8778 133.551 97.7656 133.626 97.642 133.677C97.5185 133.728 97.3861 133.754 97.2524 133.754C97.1186 133.754 96.9863 133.728 96.8627 133.677C96.7392 133.626 96.6269 133.551 96.5324 133.456C96.4378 133.362 96.3628 133.249 96.3117 133.126C96.2605 133.002 96.2341 132.87 96.2341 132.736C96.2341 132.602 96.2605 132.47 96.3117 132.346C96.3628 132.223 96.4378 132.111 96.5324 132.016L96.59 131.973Z" fill="black"/>
<path d="M112.372 133.37C113.215 132.525 113.688 131.38 113.688 130.187C113.688 128.994 113.215 127.85 112.372 127.005L102.94 117.573C102.096 116.735 100.955 116.265 99.7651 116.265C98.5755 116.265 97.4341 116.735 96.5899 117.573C95.7474 118.418 95.2744 119.562 95.2744 120.755C95.2744 121.948 95.7474 123.093 96.5899 123.938L106.022 133.37C106.866 134.208 108.007 134.678 109.197 134.678C110.387 134.678 111.528 134.208 112.372 133.37Z" fill="#9E5A11"/>
<path d="M113.136 134.133C114.618 132.652 116.628 131.82 118.723 131.82C120.818 131.82 122.828 132.652 124.31 134.133L113.136 145.293C111.663 143.809 110.836 141.803 110.836 139.713C110.836 137.622 111.663 135.616 113.136 134.133Z" fill="#9E5A11"/>
<path d="M105.702 112.795L118.531 99.9652C119.617 98.8799 121.376 98.8799 122.462 99.9652L129.997 107.5C131.082 108.585 131.082 110.345 129.997 111.431L117.167 124.26C116.082 125.346 114.322 125.346 113.237 124.26L105.702 116.725C104.616 115.64 104.616 113.88 105.702 112.795Z" fill="#9E5A11"/>
<path opacity="0.3" d="M113.82 123.586L106.377 116.143C105.617 115.384 105.617 114.153 106.377 113.394L119.115 100.655C119.874 99.8962 121.105 99.8962 121.864 100.655L129.307 108.099C130.066 108.858 130.066 110.089 129.307 110.848L116.569 123.586C115.81 124.345 114.579 124.345 113.82 123.586Z" fill="white"/>
<path d="M78.9651 139.508L91.7948 126.678C92.8802 125.593 94.6398 125.593 95.7252 126.678L103.26 134.213C104.345 135.299 104.345 137.058 103.26 138.144L90.4304 150.973C89.345 152.059 87.5854 152.059 86.5 150.973L78.9651 143.438C77.8797 142.353 77.8797 140.593 78.9651 139.508Z" fill="#9E5A11"/>
<path opacity="0.3" d="M87.1045 150.298L79.6612 142.855C78.9021 142.096 78.9021 140.865 79.6612 140.106L92.3993 127.367C93.1585 126.608 94.3894 126.608 95.1486 127.367L102.592 134.811C103.351 135.57 103.351 136.801 102.592 137.56L89.8538 150.298C89.0946 151.057 87.8637 151.057 87.1045 150.298Z" fill="white"/>
<path opacity="0.7" d="M99.1295 123.506L102.5 120.136C102.702 119.933 103.031 119.933 103.233 120.136L108.151 125.054C108.354 125.256 108.354 125.584 108.151 125.787L104.781 129.157C104.578 129.36 104.25 129.36 104.048 129.157L99.1295 124.239C98.9271 124.037 98.9271 123.708 99.1295 123.506Z" fill="white"/>
<path d="M103.199 41.9392C105.388 19.3168 125.274 0.985608 147.609 1.00001C169.943 1.01441 186.302 19.3456 184.07 41.968C183.263 49.3083 180.712 56.3491 176.629 62.5017C172.545 68.6544 167.048 73.7403 160.598 77.3344L160.958 91.7344L148.977 81.8704C145.921 82.5777 142.796 82.94 139.66 82.9504C117.326 82.9072 100.996 64.5472 103.199 41.9392Z" fill="#D1B834"/>
<path d="M138.44 33.8256C148.332 30.8448 155.316 20.2608 155.316 20.2608C155.316 20.2608 158.369 20.088 158.196 22.8816C157.877 26.7496 156.101 30.3521 153.228 32.9616L157.865 32.7024C159.496 32.61 161.132 32.79 162.704 33.2352L164.144 33.6528C164.76 33.8405 165.331 34.1538 165.82 34.573C166.31 34.9923 166.707 35.5083 166.987 36.0887C167.267 36.6691 167.424 37.3012 167.448 37.9452C167.471 38.5892 167.361 39.2311 167.124 39.8304L164.043 48.9168C163.022 51.8562 160.977 54.33 158.283 55.8864C156.002 57.247 153.325 57.7905 150.694 57.4272C146.057 56.7216 138.843 55.6416 137.604 55.4112L134.278 55.1232L135.257 34.7472L138.44 33.8256Z" fill="#FAFAFA"/>
<path d="M121.044 57.8736H134.004C134.503 57.8563 134.979 57.6609 135.347 57.3228C135.714 56.9847 135.948 56.5262 136.006 56.0304L138.252 32.8464C138.281 32.6145 138.26 32.3792 138.19 32.1561C138.121 31.9331 138.004 31.7274 137.849 31.5529C137.694 31.3785 137.503 31.2392 137.289 31.1444C137.076 31.0496 136.844 31.0014 136.611 31.0032H123.651C123.147 31.0175 122.666 31.2134 122.295 31.5548C121.925 31.8962 121.69 32.3601 121.635 32.8608L119.388 56.0304C119.362 56.2631 119.385 56.4987 119.456 56.7217C119.527 56.9448 119.645 57.1502 119.802 57.3244C119.958 57.4986 120.15 57.6376 120.364 57.7322C120.578 57.8269 120.81 57.8751 121.044 57.8736Z" fill="#5E8B25"/>
<path d="M311.398 151.704L324.358 139.421C324.171 136.86 324.2 134.288 324.444 131.731C326.878 106.733 348.852 86.472 373.534 86.4864C398.216 86.5008 416.244 106.776 413.854 131.774C411.464 156.773 389.46 177.034 364.779 177.019C357.171 177.145 349.688 175.081 343.22 171.073C336.753 167.064 331.575 161.281 328.304 154.411L311.398 151.704Z" fill="#D1B834"/>
<path d="M348.421 115.56C355.174 109.325 365.139 109.339 370.669 115.56C377.422 109.339 387.387 109.339 392.931 115.56C398.475 121.781 397.496 131.89 390.742 138.11L366.262 160.646L346.203 138.096C340.688 131.875 341.667 121.781 348.421 115.56Z" fill="#5E8B25"/>
<path opacity="0.9" d="M348.421 115.56C355.174 109.325 365.139 109.339 370.669 115.56C377.422 109.339 387.387 109.339 392.931 115.56C398.475 121.781 397.496 131.89 390.742 138.11L366.262 160.646L346.203 138.096C340.688 131.875 341.667 121.781 348.421 115.56Z" fill="#FAFAFA"/>
<path opacity="0.9" d="M181.014 215.056L187.062 215.862C191.497 218.843 196.177 222.112 201.102 225.626C201.342 227.546 201.601 229.533 201.88 231.587L207.078 231.904C210.572 228.16 214.019 224.603 217.417 221.234L208.878 222.458L204.414 222.616C204.198 221.392 203.982 220.197 203.766 219.016C212.852 214.984 221.795 211.298 230.449 208C234.87 209.973 239.449 212.104 244.144 214.379C247.355 220.139 250.811 226.72 254.411 233.934C256.945 235.422 259.494 236.934 262.057 238.47C262.057 242.517 261.942 246.75 261.87 251.128C256.379 253.749 250.83 256.446 245.224 259.221C243.179 257.147 241.153 255.112 239.147 253.115C239.55 248.162 239.953 243.414 240.356 238.874C238.096 234.078 235.921 229.528 233.848 225.28L227.411 225.179C229.225 228.242 231.097 231.462 233.027 234.842C232.566 238.038 232.086 241.36 231.587 244.806L227.08 247.37C227.08 248.075 227.18 248.81 227.238 249.515L229.34 252.309L226.82 256.629C227.195 257.637 227.584 258.645 227.958 259.667C227.785 261.237 227.612 262.821 227.425 264.419C232.859 264.899 238.307 265.379 243.769 265.859C246.836 262.821 249.875 259.826 252.884 256.917L255.88 257.579C255.649 260.91 255.404 264.309 255.145 267.774L263.166 271.072C265.931 273.827 268.71 276.621 271.504 279.453C274.806 281.267 278.104 283.106 281.396 284.968L274.888 292.744C275.003 295.624 275.108 298.557 275.204 301.542C280.403 301.787 285.587 302.061 290.742 302.334C291.289 306.731 291.822 311.166 292.34 315.64C291.923 318.794 291.505 321.976 291.088 325.158L282.894 328.643L271.849 320.19C269.516 314.584 267.193 309.035 264.88 303.544L260.372 301.254L252.553 301.931C248.176 305.57 243.784 309.251 239.377 312.976C239.046 315.136 238.7 317.296 238.355 319.485L235.619 318.563C235.172 316.158 234.726 313.768 234.294 311.363C237.596 307.59 240.884 303.842 244.158 300.117L241.278 299.109C237.822 301.499 234.337 303.904 230.867 306.309C229.513 311.109 228.16 315.971 226.806 320.896C224.761 323.07 222.731 325.216 220.686 327.448L216.64 322.106C218.483 319.686 220.331 317.286 222.184 314.906L215.617 311.262C215.118 314.325 214.638 317.411 214.177 320.522C211.297 323.949 208.417 327.381 205.537 330.818L193.931 335.138V340.754L199.691 342.381H210.75L224.07 337.658L227.612 338.824C227.612 340.638 227.612 342.453 227.612 344.253C235.1 337.73 242.632 331.178 250.148 324.698C260.675 326.958 271.23 329.234 281.713 331.538L286.408 333.64C288.913 336.146 291.404 338.666 293.881 341.171C294.284 343.374 294.673 345.563 295.062 347.766C300.668 355.072 306.174 362.315 311.579 369.496C311.449 378.136 311.248 386.776 310.974 395.157C304.004 403.134 296.977 410.997 290.022 418.571C281.718 417.189 273.332 415.749 264.865 414.251C259.441 416.67 254.056 419.046 248.708 421.379C249.486 424.998 250.264 428.55 251.041 432.035C248.521 435.52 246.059 438.918 243.611 442.23C242.219 447.99 240.87 453.51 239.564 458.79C241.763 462.179 243.932 465.424 246.073 468.525C244.432 472.413 242.848 476.085 241.336 479.498C238.945 486.698 236.785 492.789 234.928 497.469C230.128 497.085 225.328 496.662 220.528 496.202C216.208 493.322 211.888 490.096 207.38 486.438C206.156 485.142 204.918 483.803 203.68 482.421L199.936 481.73C199.936 479.21 199.864 476.546 199.936 473.738C195.616 471.002 191.296 468.122 186.889 465.098C186.4 457.35 186.112 448.782 185.996 439.581C178.796 432.64 171.596 425.382 164.396 417.981C161.689 411.962 159.025 405.784 156.433 399.52C161.483 400.701 166.604 401.877 171.798 403.048C179.56 387.827 188.156 371.656 197.128 355.24L192.894 352.187L189.251 351.712C183.563 362.296 178.048 372.779 172.849 382.974C172.302 387.122 171.793 391.226 171.323 395.286C164.603 391.946 157.936 388.586 151.321 385.206C146.924 379.811 142.604 374.411 138.361 369.006C140.809 365.824 143.315 362.598 145.878 359.358H153.74C158.185 355.202 162.731 350.997 167.377 346.744L160.58 343.518C156.145 347.493 151.734 351.4 147.347 355.24L123.083 358.451C120.376 362.589 117.755 366.683 115.22 370.734L111.174 369.539C110.492 373.907 109.864 378.227 109.288 382.499C107.579 389.325 106.038 395.978 104.665 402.458C93.2343 367.235 94.6248 329.105 108.591 294.809C122.557 260.512 148.2 232.258 180.985 215.042L181.014 215.056Z" fill="#5E8B25"/>
<path d="M188.898 302.73L177.615 309.376L160.469 284.26L171.752 277.6L188.898 302.73Z" fill="#E4897B"/>
<path d="M177.211 309.003L186.462 297.553C186.618 297.354 186.841 297.218 187.091 297.172C187.34 297.126 187.597 297.173 187.814 297.304L197.914 303.319C198.164 303.48 198.377 303.692 198.539 303.941C198.701 304.189 198.81 304.469 198.857 304.762C198.904 305.056 198.889 305.355 198.813 305.642C198.736 305.929 198.6 306.197 198.414 306.428C195.115 310.356 193.32 312.09 189.247 317.128C186.751 320.233 181.891 326.901 178.421 331.175C174.95 335.449 170.547 332.252 171.606 330.16C176.356 320.785 176.527 315.744 176.44 311.208C176.426 310.405 176.699 309.623 177.211 309.003Z" fill="#263238"/>
<path d="M172.986 316.173L173.26 316.173C175.102 315.879 177.05 312.647 178.037 310.757C178.058 310.718 178.067 310.673 178.062 310.628C178.056 310.584 178.037 310.542 178.007 310.509C177.977 310.476 177.937 310.453 177.893 310.443C177.849 310.434 177.804 310.438 177.763 310.455C177.159 310.717 171.838 313.081 171.513 314.796C171.485 314.95 171.497 315.109 171.548 315.258C171.599 315.406 171.687 315.539 171.803 315.644C171.954 315.808 172.137 315.94 172.34 316.031C172.544 316.121 172.763 316.17 172.986 316.173ZM177.289 311.091C175.786 313.817 174.237 315.536 173.128 315.712C172.932 315.747 172.729 315.731 172.54 315.666C172.351 315.601 172.181 315.49 172.047 315.341C171.986 315.283 171.939 315.211 171.912 315.13C171.884 315.05 171.875 314.965 171.887 314.881C172.157 313.728 175.507 311.946 177.289 311.091Z" fill="#5E8B25"/>
<path d="M173.605 311.65C175.088 311.633 176.554 311.33 177.922 310.757C177.956 310.743 177.985 310.719 178.006 310.688C178.026 310.657 178.037 310.621 178.037 310.584C178.043 310.546 178.038 310.506 178.023 310.471C178.008 310.435 177.982 310.404 177.95 310.383C177.82 310.297 174.905 308.334 172.847 308.743C172.554 308.799 172.276 308.914 172.029 309.081C171.782 309.248 171.571 309.463 171.41 309.713C170.966 310.391 171.14 310.823 171.414 311.052C172.042 311.523 172.825 311.737 173.605 311.65ZM177.389 310.529C175.62 311.24 172.366 311.495 171.701 310.763C171.701 310.691 171.456 310.49 171.814 309.956C171.94 309.753 172.108 309.579 172.306 309.444C172.504 309.309 172.728 309.218 172.963 309.175C174.549 309.177 176.095 309.67 177.389 310.586L177.389 310.529Z" fill="#5E8B25"/>
<path d="M205.993 104.371L205.453 106.561L204.841 108.925C204.429 110.51 203.959 112.11 203.489 113.71C202.539 116.91 201.537 120.105 200.482 123.296C199.369 126.467 198.299 129.668 197.086 132.825C196.5 134.397 195.915 135.997 195.301 137.569L194.573 139.457C194.42 139.783 194.228 140.089 194 140.367C192.21 142.18 190.034 143.565 187.634 144.419C184.689 145.627 181.654 146.6 178.557 147.329C175.362 148.088 172.081 148.718 168.756 149.247C165.432 149.776 162.02 150.191 158.681 150.561L158.588 157.344C165.771 158.068 173.009 158.044 180.187 157.274C183.944 156.884 187.658 156.154 191.283 155.092C193.261 154.497 195.186 153.734 197.035 152.813C199.156 151.779 201.096 150.411 202.782 148.762C203.759 147.784 204.603 146.683 205.292 145.485C205.485 145.172 205.662 144.85 205.821 144.518L206.15 143.841L206.722 142.644C207.495 141.043 208.267 139.442 208.982 137.812C210.411 134.553 211.841 131.28 213.097 127.935C214.353 124.59 215.566 121.216 216.65 117.843C217.177 116.113 217.675 114.369 218.073 112.611L218.755 109.931C218.954 108.994 219.138 108.187 219.336 107.049L205.993 104.371Z" fill="#E4897B"/>
<path d="M210.223 90.0862C204.828 91.4718 201.113 113.718 201.113 113.718L216.035 123.749C216.035 123.749 230.233 101.282 226.023 95.3484C221.712 89.228 218.094 88.0446 210.223 90.0862Z" fill="#5E8B25"/>
<path opacity="0.2" d="M210.223 90.0862C204.828 91.4718 201.113 113.718 201.113 113.718L216.035 123.749C216.035 123.749 230.233 101.282 226.023 95.3484C221.712 89.228 218.094 88.0446 210.223 90.0862Z" fill="black"/>
<path d="M209.717 98.1663L221.246 100.807L222.391 112.108C220.444 116.109 218.294 120.01 215.949 123.793L206.9 117.688C207.359 112.488 208.288 101.685 209.717 98.1663Z" fill="#5E8B25"/>
<path opacity="0.3" d="M209.717 98.1663L221.246 100.807L222.391 112.108C220.444 116.109 218.294 120.01 215.949 123.793L206.9 117.688C207.359 112.488 208.288 101.685 209.717 98.1663Z" fill="black"/>
<path d="M160.668 150.411L151.349 141.024L150.168 154.29C150.168 154.29 157.153 158.99 161.969 156.44L160.668 150.411Z" fill="#E4897B"/>
<path d="M140.415 139.634L140.033 150.809L150.168 154.276L151.349 141.009L140.415 139.634Z" fill="#E4897B"/>
<path d="M207.63 328.574L194.526 328.617L190.208 298.276L203.326 298.233L207.63 328.574Z" fill="#E4897B"/>
<path d="M193.649 324.703L206.587 317.734C206.808 317.612 207.066 317.575 207.313 317.63C207.56 317.685 207.778 317.828 207.927 318.033L214.913 327.499C215.079 327.745 215.193 328.023 215.245 328.315C215.297 328.607 215.288 328.907 215.217 329.195C215.146 329.483 215.015 329.753 214.833 329.987C214.651 330.221 214.421 330.415 214.16 330.555C209.602 332.902 207.273 333.803 201.566 336.86C198.058 338.743 189.262 343.941 184.403 346.549C179.545 349.157 176.736 344.486 178.517 342.968C186.515 336.174 190.385 330.646 192.057 326.451C192.358 325.694 192.924 325.073 193.649 324.703Z" fill="#263238"/>
<path d="M265.036 38.7156C265.414 53.1144 283.02 47.1099 285.047 63.6922C286.186 73.0054 297.479 73.9334 299.508 82.3653C301.493 90.5236 293.549 96.4823 299.587 106.629C307.666 120.211 312.236 143.927 267.158 146.536C233.641 148.474 221.736 114.457 227.356 93.5153C232.976 72.5737 236.134 69.3378 229.88 63.5981C223.626 57.8584 213.623 55.011 216.762 37.4039C219.195 23.7879 225.219 25.3667 225.219 25.3667C225.497 17.8489 264.14 6.67834 265.036 38.7156Z" fill="#263238"/>
<path d="M160.469 284.26L169.31 297.206L180.607 290.56L171.766 277.6L160.469 284.26Z" fill="#CE6F64"/>
<path d="M203.326 298.247L190.208 298.29L192.448 313.921L205.552 313.879L203.326 298.247Z" fill="#CE6F64"/>
<path d="M210.223 90.0862C210.223 90.0862 203.981 92.3097 216.745 169.165L270.025 168.991C269.061 147.394 269.003 133.974 279.212 89.473C271.753 87.9633 264.194 86.9965 256.595 86.5801C248.544 86.0297 240.464 86.056 232.417 86.6588C221.995 87.6431 210.223 90.0862 210.223 90.0862Z" fill="#D1B834"/>
<path d="M254.058 59.3867C252.557 67.1676 251.077 81.4141 256.537 86.5947C256.537 86.5947 254.432 94.4928 239.988 94.5398C226.078 94.5851 232.36 86.6734 232.36 86.6734C240.993 84.5717 240.785 78.1355 239.253 72.0925L254.058 59.3867Z" fill="#E4897B"/>
<path d="M248.027 64.5615L239.268 72.078C239.643 73.4926 239.893 74.9373 240.016 76.3956C243.341 75.9096 247.879 72.2516 248.214 68.7801C248.404 67.374 248.34 65.9453 248.027 64.5615Z" fill="#CE6F64"/>
<path d="M254.899 38.8782C256.381 51.8334 257.378 57.2158 252.103 64.9514C244.192 76.5836 227.989 75.6571 222.622 63.4633C217.791 52.4918 216.072 33.2445 227.654 25.8484C230.199 24.2098 233.121 23.2496 236.142 23.0592C239.163 22.8687 242.182 23.4543 244.913 24.7602C247.643 26.0662 249.994 28.049 251.742 30.5202C253.49 32.9913 254.577 35.8685 254.899 38.8782Z" fill="#E4897B"/>
<path d="M254.996 46.5099C253.178 49.9143 225.134 34.5254 228.289 26.2063C231.445 17.8872 239.792 20.8697 239.792 20.8697C239.792 20.8697 254.592 24.1911 257.108 31.8582C259.624 39.5252 254.996 46.5099 254.996 46.5099Z" fill="#263238"/>
<path d="M260.386 47.9756C260.134 50.4705 258.942 52.7759 257.052 54.4232C254.524 56.5771 251.998 54.6701 251.642 51.5608C251.317 48.7827 252.238 44.3589 255.273 43.341C258.308 42.3231 260.664 44.965 260.386 47.9756Z" fill="#E4897B"/>
<path d="M216.745 169.165C216.745 169.165 133.914 177.412 134.908 217.369C135.936 258.938 165.909 296.281 165.909 296.281L181.532 287.374C181.532 287.374 164.133 250.84 164.945 225.911C165.596 204.597 245.041 200.249 245.041 200.249L255.898 169.037L216.745 169.165Z" fill="#5E8B25"/>
<path opacity="0.6" d="M216.745 169.165C216.745 169.165 133.914 177.412 134.908 217.369C135.936 258.938 165.909 296.281 165.909 296.281L181.532 287.374C181.532 287.374 164.133 250.84 164.945 225.911C165.596 204.597 245.041 200.249 245.041 200.249L255.898 169.037L216.745 169.165Z" fill="#FAFAFA"/>
<path d="M187.949 192.687L186.334 209.685C174.754 213.351 165.857 218.391 165 225.105C162.993 210.077 173.447 201.159 187.949 192.687Z" fill="#5E8B25"/>
<path opacity="0.4" d="M187.949 192.687L186.334 209.685C174.754 213.351 165.857 218.391 165 225.105C162.993 210.077 173.447 201.159 187.949 192.687Z" fill="#FAFAFA"/>
<path d="M230.799 169.119C230.799 169.119 174.009 188.139 172.645 211.457C170.135 254.392 189.198 310.908 189.198 310.908L207.14 310.849C207.14 310.849 206.01 273.312 203.738 234.425C200.9 185.575 287.255 233.476 269.967 168.991L230.799 169.119Z" fill="#5E8B25"/>
<path opacity="0.6" d="M230.799 169.119C230.799 169.119 174.009 188.139 172.645 211.457C170.135 254.392 189.198 310.908 189.198 310.908L207.14 310.849C207.14 310.849 206.01 273.312 203.738 234.425C200.9 185.575 287.255 233.476 269.967 168.991L230.799 169.119Z" fill="#FAFAFA"/>
<path d="M236.173 45.9808C236.363 47.0169 235.963 47.9543 235.287 48.0861C234.61 48.2179 233.845 47.4571 233.712 46.4208C233.579 45.3844 233.921 44.4329 234.598 44.3155C235.274 44.1981 235.982 44.9302 236.173 45.9808Z" fill="#263238"/>
<path d="M224.429 48.1214C224.606 49.1576 224.22 50.0949 223.529 50.2267C222.838 50.3586 222.087 49.6122 221.954 48.5615C221.821 47.5107 222.164 46.5879 222.854 46.4561C223.545 46.3243 224.239 47.0708 224.429 48.1214Z" fill="#263238"/>
<path d="M223.157 46.5271L220.535 46.262C220.535 46.262 222.168 47.9703 223.157 46.5271Z" fill="#263238"/>
<path d="M227.861 49.3918C227.374 51.8929 226.554 54.3172 225.422 56.5998C226.024 56.8735 226.677 57.014 227.338 57.0119C227.999 57.0097 228.652 56.8649 229.252 56.5874L227.861 49.3918Z" fill="#DE5753"/>
<path d="M235.194 59.3616L235.28 59.3613C237.37 58.3705 239.002 56.619 239.844 54.4649C239.853 54.4403 239.856 54.4142 239.854 54.3882C239.852 54.3622 239.845 54.3368 239.833 54.3138C239.82 54.2908 239.803 54.2706 239.783 54.2546C239.762 54.2385 239.739 54.2269 239.713 54.2205C239.69 54.2115 239.665 54.2073 239.639 54.2083C239.614 54.2093 239.589 54.2154 239.566 54.2263C239.544 54.2371 239.523 54.2525 239.506 54.2714C239.49 54.2903 239.477 54.3125 239.469 54.3365C238.663 56.3723 237.129 58.0354 235.164 59.0017C235.117 59.0239 235.081 59.0632 235.062 59.1115C235.044 59.1598 235.044 59.2134 235.064 59.2612C235.078 59.2861 235.096 59.308 235.118 59.3253C235.141 59.3426 235.167 59.3549 235.194 59.3616Z" fill="#263238"/>
<path d="M237.468 41.3109C237.524 41.3108 237.579 41.2976 237.629 41.2724C237.679 41.2472 237.722 41.2108 237.756 41.166C237.795 41.1321 237.827 41.09 237.848 41.0427C237.87 40.9954 237.881 40.944 237.881 40.892C237.881 40.84 237.869 40.7886 237.847 40.7415C237.825 40.6943 237.793 40.6525 237.754 40.6188C237.056 39.9807 236.216 39.5187 235.303 39.2712C234.391 39.0236 233.432 38.9978 232.508 39.1959C232.406 39.2229 232.32 39.289 232.268 39.3797C232.216 39.4703 232.201 39.5781 232.228 39.6792C232.255 39.7803 232.322 39.8665 232.412 39.9189C232.503 39.9713 232.611 39.9855 232.712 39.9584C233.515 39.7959 234.345 39.8288 235.133 40.0543C235.92 40.2798 236.642 40.6912 237.238 41.2541C237.307 41.2949 237.387 41.3147 237.468 41.3109Z" fill="#263238"/>
<path d="M217.992 43.4623C218.068 43.4568 218.142 43.4311 218.205 43.3879C218.268 43.3447 218.318 43.2855 218.351 43.2163C218.655 42.4592 219.133 41.7844 219.747 41.2469C220.361 40.7095 221.093 40.3245 221.883 40.1232C221.988 40.1052 222.082 40.0466 222.143 39.9601C222.205 39.8736 222.23 39.7662 222.213 39.6613C222.192 39.5593 222.132 39.4694 222.046 39.4106C221.96 39.3518 221.854 39.3287 221.751 39.346C220.828 39.5623 219.972 39.9987 219.254 40.6179C218.536 41.2371 217.979 42.0207 217.63 42.9019C217.607 42.9488 217.593 43.0001 217.591 43.0525C217.589 43.1049 217.597 43.1572 217.616 43.206C217.636 43.2548 217.665 43.299 217.702 43.3358C217.74 43.3726 217.784 43.4012 217.833 43.4196C217.881 43.4489 217.936 43.4638 217.992 43.4623Z" fill="#263238"/>
<path d="M188.754 329.385C190.295 329.38 192.378 327.76 193.541 326.719C193.576 326.694 193.602 326.657 193.615 326.616C193.627 326.574 193.626 326.53 193.612 326.489C193.599 326.447 193.574 326.411 193.541 326.383C193.508 326.355 193.467 326.337 193.424 326.331C192.891 326.333 188.21 325.916 187.235 327.201C187.13 327.336 187.063 327.497 187.041 327.666C187.019 327.836 187.042 328.008 187.108 328.166C187.189 328.443 187.338 328.695 187.543 328.899C187.748 329.102 188.001 329.25 188.279 329.328C188.435 329.363 188.594 329.382 188.754 329.385ZM192.864 326.736C190.968 328.326 189.329 329.138 188.392 328.896C188.184 328.839 187.994 328.727 187.842 328.574C187.69 328.42 187.581 328.229 187.526 328.021C187.471 327.94 187.441 327.845 187.441 327.747C187.441 327.65 187.47 327.554 187.524 327.473C188.212 326.636 191.236 326.64 192.864 326.736Z" fill="#5E8B25"/>
<path d="M193.397 326.777C193.436 326.78 193.475 326.771 193.509 326.75C193.542 326.729 193.569 326.698 193.583 326.662C193.601 326.628 193.61 326.591 193.61 326.554C193.61 326.516 193.601 326.479 193.583 326.446C193.51 326.316 191.728 323.024 189.913 322.598C189.695 322.536 189.465 322.526 189.242 322.569C189.02 322.613 188.811 322.708 188.632 322.847C188.43 322.953 188.271 323.127 188.185 323.338C188.099 323.549 188.09 323.784 188.16 324.001C188.553 325.324 191.798 326.739 193.382 326.777L193.397 326.777ZM189.525 322.988L189.827 322.987C191.124 323.286 192.485 325.398 193.006 326.246C191.493 326.02 188.897 324.819 188.592 323.827C188.591 323.668 188.519 323.424 188.892 323.163C189.08 323.041 189.301 322.98 189.525 322.988Z" fill="#5E8B25"/>
<path d="M234.915 44.3144L232.279 44.0494C232.279 44.0494 233.926 45.7721 234.915 44.3144Z" fill="#263238"/>
<path d="M270.763 165.893L271.196 170.658C271.385 171.032 270.954 171.407 270.335 171.409L216.494 171.585C216.004 171.586 215.614 171.357 215.585 171.055L215.079 166.29C215.078 165.959 215.466 165.67 215.985 165.668L269.898 165.492C270.064 165.483 270.23 165.514 270.381 165.584C270.532 165.654 270.663 165.76 270.763 165.893Z" fill="#263238"/>
<path d="M263.54 171.921L264.98 171.917C265.268 171.916 265.483 171.771 265.468 171.584L264.771 165.394C264.771 165.207 264.496 165.064 264.208 165.065L262.768 165.069C262.48 165.07 262.265 165.215 262.28 165.402L262.977 171.592C263.006 171.779 263.237 171.922 263.54 171.921Z" fill="#5E8B25"/>
<path opacity="0.6" d="M263.54 171.921L264.98 171.917C265.268 171.916 265.483 171.771 265.468 171.584L264.771 165.394C264.771 165.207 264.496 165.064 264.208 165.065L262.768 165.069C262.48 165.07 262.265 165.215 262.28 165.402L262.977 171.592C263.006 171.779 263.237 171.922 263.54 171.921Z" fill="#FAFAFA"/>
<path d="M220.541 172.061L221.981 172.056C222.269 172.055 222.485 171.911 222.455 171.724L221.758 165.534C221.758 165.347 221.498 165.204 221.21 165.204L219.77 165.209C219.482 165.21 219.267 165.355 219.296 165.542L219.993 171.732C220.037 171.919 220.253 172.062 220.541 172.061Z" fill="#5E8B25"/>
<path opacity="0.6" d="M220.541 172.061L221.981 172.056C222.269 172.055 222.485 171.911 222.455 171.724L221.758 165.534C221.758 165.347 221.498 165.204 221.21 165.204L219.77 165.209C219.482 165.21 219.267 165.355 219.296 165.542L219.993 171.732C220.037 171.919 220.253 172.062 220.541 172.061Z" fill="#FAFAFA"/>
<path d="M242.04 171.991L243.48 171.986C243.768 171.986 243.998 171.841 243.969 171.654L243.272 165.464C243.271 165.277 242.997 165.134 242.709 165.135L241.269 165.139C240.981 165.14 240.766 165.285 240.781 165.472L241.478 171.662C241.507 171.849 241.752 171.992 242.04 171.991Z" fill="#5E8B25"/>
<path opacity="0.6" d="M242.04 171.991L243.48 171.986C243.768 171.986 243.998 171.841 243.969 171.654L243.272 165.464C243.271 165.277 242.997 165.134 242.709 165.135L241.269 165.139C240.981 165.14 240.766 165.285 240.781 165.472L241.478 171.662C241.507 171.849 241.752 171.992 242.04 171.991Z" fill="#FAFAFA"/>
<path d="M266.694 110.163L273.582 115.987C272.167 123.768 271.18 130.251 270.565 136.013C269.265 130.243 265.931 114.587 266.694 110.163Z" fill="#5E8B25"/>
<path opacity="0.3" d="M266.694 110.163L273.582 115.987C272.167 123.768 271.18 130.251 270.565 136.013C269.265 130.243 265.931 114.587 266.694 110.163Z" fill="black"/>
<path d="M121.254 132.683L214.667 132.379L228.382 187.501L134.97 187.805L121.254 132.683Z" fill="#FAFAFA"/>
<path d="M168.733 177.428L225.901 190.562L262.53 180.161L262.145 177.124L168.733 177.428Z" fill="#FAFAFA"/>
<path d="M271.268 108.464C272.388 112.132 273.61 115.915 274.702 119.656C275.795 123.396 276.944 127.165 277.936 130.921C278.927 134.676 279.875 138.417 280.607 142.086C280.959 143.914 281.296 145.742 281.518 147.469C281.676 148.682 281.761 149.903 281.774 151.126C281.461 152.108 280.921 153.002 280.199 153.737C279.11 154.927 277.902 156.002 276.595 156.946C273.604 159.091 270.447 160.994 267.153 162.636C263.774 164.389 260.237 165.985 256.627 167.465C253.018 168.946 249.336 170.369 245.726 171.821L247.418 178.324C251.549 177.663 255.477 176.728 259.477 175.722C263.477 174.715 267.375 173.392 271.301 171.939C275.358 170.441 279.267 168.567 282.976 166.343C285.037 165.1 286.963 163.646 288.722 162.004C290.932 159.996 292.602 157.466 293.58 154.644C293.848 153.785 294.033 152.902 294.133 152.007L294.13 151.316L294.129 150.798L294.126 149.876C294.122 148.666 294.118 147.514 294.114 146.377C293.992 144.131 293.74 142.058 293.416 139.899C292.812 135.696 291.95 131.638 291.044 127.638C289.179 119.677 286.909 111.816 284.242 104.087L271.268 108.464Z" fill="#E4897B"/>
<path d="M279.155 89.5452C284.488 91.155 292.721 112.066 292.721 112.066L272.076 126.922C272.076 126.922 262.716 109.053 264.94 102.148C267.307 94.8973 273.043 87.6498 279.155 89.5452Z" fill="#5E8B25"/>
<path d="M248.42 172.215L235.969 169.102L241.94 181.02C241.94 181.02 250.337 181.353 253.1 176.664L248.42 172.215Z" fill="#E4897B"/>
<path d="M225.947 173.671L231.479 183.387L241.94 181.02L235.969 169.102L225.947 173.671Z" fill="#E4897B"/>
<path d="M118.375 132.693L211.787 132.389L225.502 187.511L132.09 187.815L118.375 132.693Z" fill="#263238"/>
<path d="M132.09 187.815L132.474 190.866L225.901 190.562L225.516 187.511L132.09 187.815Z" fill="#263238"/>
<path d="M230.538 31.2679C217.969 36.3488 216.955 43.5953 217.601 38.51C218.528 31.2061 224.573 25.9304 228.916 24.1451C231.461 23.0712 236.031 29.0468 230.538 31.2679Z" fill="#263238"/>
<path d="M254.017 37.7867L254.87 38.7775C255.003 38.9141 255.078 39.0972 255.078 39.288C255.079 39.4788 255.005 39.6624 254.873 39.7999L248.096 46.014C247.961 46.1389 247.784 46.2085 247.6 46.2091C247.416 46.2097 247.239 46.1412 247.103 46.0172L245.933 44.941C245.856 44.8724 245.794 44.7882 245.751 44.6941C245.709 44.5999 245.687 44.4979 245.686 44.3946C245.686 44.2913 245.708 44.1891 245.749 44.0947C245.791 44.0003 245.853 43.9157 245.929 43.8466L253.037 37.7178C253.18 37.6064 253.359 37.5518 253.54 37.5645C253.721 37.5772 253.891 37.6563 254.017 37.7867Z" fill="#5E8B25"/>
<path opacity="0.3" d="M254.017 37.7867L254.87 38.7775C255.003 38.9141 255.078 39.0972 255.078 39.288C255.079 39.4788 255.005 39.6624 254.873 39.7999L248.096 46.014C247.961 46.1389 247.784 46.2085 247.6 46.2091C247.416 46.2097 247.239 46.1412 247.103 46.0172L245.933 44.941C245.856 44.8724 245.794 44.7882 245.751 44.6941C245.709 44.5999 245.687 44.4979 245.686 44.3946C245.686 44.2913 245.708 44.1891 245.749 44.0947C245.791 44.0003 245.853 43.9157 245.929 43.8466L253.037 37.7178C253.18 37.6064 253.359 37.5518 253.54 37.5645C253.721 37.5772 253.891 37.6563 254.017 37.7867Z" fill="black"/>
<path d="M255.915 85.6751C255.775 86.77 254.583 92.1739 244.308 94.2377C244.308 94.2377 247.371 97.5542 249.125 105.512C249.125 105.512 267.131 98.3827 261.622 86.9382C261.578 86.8464 261.514 86.7661 261.433 86.7038C261.353 86.6416 261.259 86.599 261.16 86.5797L256.145 85.5304C256.12 85.5241 256.095 85.5229 256.07 85.5268C256.044 85.5308 256.02 85.5398 255.999 85.5533C255.977 85.5669 255.959 85.5846 255.944 85.6056C255.93 85.6265 255.92 85.6502 255.915 85.6751Z" fill="#5E8B25"/>
<path opacity="0.8" d="M255.915 85.6751C255.775 86.77 254.583 92.1739 244.308 94.2377C244.308 94.2377 247.371 97.5542 249.125 105.512C249.125 105.512 267.131 98.3827 261.622 86.9382C261.578 86.8464 261.514 86.7661 261.433 86.7038C261.353 86.6416 261.259 86.599 261.16 86.5797L256.145 85.5304C256.12 85.5241 256.095 85.5229 256.07 85.5268C256.044 85.5308 256.02 85.5398 255.999 85.5533C255.977 85.5669 255.959 85.5846 255.944 85.6056C255.93 85.6265 255.92 85.6502 255.915 85.6751Z" fill="white"/>
<path d="M232.95 86.5851C231.716 87.8995 228.346 92.3601 236.906 94.377C236.906 94.377 231.717 97.2739 230.015 105.243C230.015 105.243 217.185 96.486 228.804 86.8865C228.817 86.8801 228.832 86.8767 228.847 86.8767C228.862 86.8766 228.876 86.8799 228.89 86.8863L232.791 86.3264C232.82 86.3285 232.849 86.3377 232.874 86.3531C232.9 86.3685 232.921 86.3897 232.936 86.4149C232.952 86.4402 232.961 86.4688 232.964 86.4984C232.966 86.528 232.961 86.5577 232.95 86.5851Z" fill="#5E8B25"/>
<path opacity="0.8" d="M232.95 86.5851C231.716 87.8995 228.346 92.3601 236.906 94.377C236.906 94.377 231.717 97.2739 230.015 105.243C230.015 105.243 217.185 96.486 228.804 86.8865C228.817 86.8801 228.832 86.8767 228.847 86.8767C228.862 86.8766 228.876 86.8799 228.89 86.8863L232.791 86.3264C232.82 86.3285 232.849 86.3377 232.874 86.3531C232.9 86.3685 232.921 86.3897 232.936 86.4149C232.952 86.4402 232.961 86.4688 232.964 86.4984C232.966 86.528 232.961 86.5577 232.95 86.5851Z" fill="white"/>
</svg>
