<svg width="74" height="56" viewBox="0 0 74 56" fill="none" xmlns="http://www.w3.org/2000/svg">
<path d="M36.9843 34.7536L37.9911 34.7583C51.6089 34.8862 59.3473 37.664 59.3473 45.348C59.3473 52.8513 51.9502 55.7243 38.9725 55.9809L36.9843 56C22.7401 56 14.6212 53.2774 14.6212 45.4056C14.6212 37.525 22.7726 34.7536 36.9843 34.7536ZM36.9843 39.708C25.4679 39.708 19.5756 41.7113 19.5756 45.4056C19.5756 49.074 25.4548 51.0456 36.9843 51.0456C48.4971 51.0456 54.3929 49.0405 54.3929 45.348C54.3929 41.68 48.5119 39.708 36.9843 39.708ZM60.2466 32.6958C61.97 32.8147 63.665 33.0594 65.251 33.4173C68.7819 34.1086 71.4354 35.4324 72.668 38.0152C73.5752 39.9232 73.5752 42.1418 72.6678 44.0548C71.444 46.6277 68.8353 47.9335 65.2741 48.6658C63.934 48.9414 62.6242 48.0784 62.3487 46.7383C62.0731 45.3983 62.9361 44.0885 64.2761 43.813C66.4307 43.3699 67.8437 42.6626 68.1926 41.9291C68.4612 41.363 68.4612 40.7053 68.1952 40.1459C67.8415 39.4048 66.4167 38.694 64.2312 38.2651C62.8259 37.9489 61.3805 37.7402 59.9057 37.6385C58.5408 37.5443 57.5107 36.3616 57.6048 34.9967C57.6989 33.6318 58.8817 32.6017 60.2466 32.6958ZM16.3946 34.9967C16.4887 36.3616 15.4586 37.5443 14.0937 37.6385C12.9876 37.7148 11.8981 37.8512 10.8009 38.0541L9.70024 38.2794C7.58347 38.6938 6.16003 39.4042 5.80666 40.1471C5.53896 40.7072 5.53896 41.361 5.80999 41.9295C6.15787 42.6632 7.56946 43.3701 9.72326 43.813C11.0633 44.0885 11.9263 45.3983 11.6507 46.7383C11.3752 48.0784 10.0654 48.9414 8.72535 48.6658C5.16266 47.9332 2.55409 46.627 1.33555 44.0568C0.423465 42.1437 0.423465 39.9212 1.33459 38.0148C2.48075 35.6053 4.86861 34.291 7.99854 33.5759L8.68042 33.4316C10.3344 33.0594 12.0294 32.8147 13.7528 32.6958C15.1177 32.6017 16.3005 33.6318 16.3946 34.9967ZM36.9843 0C45.4251 0 52.205 6.77994 52.205 15.2207C52.205 23.664 45.4256 30.4445 36.9843 30.4445C28.5429 30.4445 21.7635 23.664 21.7635 15.2207C21.7635 6.77994 28.5435 0 36.9843 0ZM55.6693 3.11095C62.3302 3.11095 67.7322 8.5106 67.7322 15.1708C67.7322 21.831 62.3302 27.2306 55.6693 27.2306C54.3012 27.2306 53.1921 26.1215 53.1921 24.7534C53.1921 23.3853 54.3012 22.2762 55.6693 22.2762C59.5944 22.2762 62.7778 19.0942 62.7778 15.1708C62.7778 11.2473 59.5944 8.06535 55.6693 8.06535C54.3012 8.06535 53.1921 6.95627 53.1921 5.58815C53.1921 4.22003 54.3012 3.11095 55.6693 3.11095ZM18.3301 3.11095C19.6982 3.11095 20.8073 4.22003 20.8073 5.58815C20.8073 6.95627 19.6982 8.06535 18.3301 8.06535C14.405 8.06535 11.2216 11.2473 11.2216 15.1708C11.2216 19.0942 14.405 22.2762 18.3301 22.2762C19.6982 22.2762 20.8073 23.3853 20.8073 24.7534C20.8073 26.1215 19.6982 27.2306 18.3301 27.2306C11.6692 27.2306 6.26722 21.831 6.26722 15.1708C6.26722 8.5106 11.6692 3.11095 18.3301 3.11095ZM36.9843 4.9544C31.2797 4.9544 26.7179 9.51618 26.7179 15.2207C26.7179 20.9279 31.2793 25.4901 36.9843 25.4901C42.6892 25.4901 47.2506 20.9279 47.2506 15.2207C47.2506 9.51618 42.6888 4.9544 36.9843 4.9544Z" fill="#9E5A11"/>
</svg>
