<svg width="64" height="60" viewBox="0 0 64 60" fill="none" xmlns="http://www.w3.org/2000/svg">
<path d="M32.001 0C33.8105 0.00947367 35.4589 1.03263 36.2642 2.65263L43.4042 16.9895C43.4357 17.021 43.4673 17.0526 43.4957 17.0526L59.481 19.3579C60.7315 19.5347 61.8652 20.1916 62.6389 21.1894C64.0631 23.0968 63.8452 25.7589 62.1336 27.4105L50.5442 38.621C50.5442 38.621 50.522 38.6431 50.522 38.6526C50.522 38.6621 50.522 38.6526 50.5442 38.6842L53.3231 54.5052C53.702 57.0789 51.9463 59.4852 49.3757 59.9052C49.1294 59.9399 48.8768 59.962 48.6273 59.962C47.8442 59.9652 47.0705 59.7725 46.3789 59.3999L32.1021 51.9473C32.0579 51.9441 32.0137 51.9568 31.9758 51.9789L17.601 59.4947C16.9379 59.8294 16.1989 60.0031 15.4537 60C13.6853 60.0031 12.0589 59.0304 11.2253 57.4736C10.7295 56.5578 10.5495 55.5031 10.7168 54.4736L13.5305 38.7157C13.5305 38.681 13.521 38.6463 13.4958 38.621L1.81159 27.3789C0.924224 26.5136 0.425277 25.3263 0.422119 24.0852C0.422119 22.7779 0.946329 21.5242 1.87791 20.6115C2.61369 19.9484 3.52317 19.5126 4.49896 19.3484L20.4463 17.0431C20.5095 17.0431 20.5758 17.0147 20.5758 16.9484L27.7063 2.65263C28.2684 1.51895 29.2568 0.659999 30.4537 0.252631C30.9526 0.0821051 31.4768 0 32.001 0ZM32.001 4.61052H31.941L31.9094 4.63263C31.881 4.64841 31.8621 4.67368 31.8463 4.7021L24.7063 19.0073C24.0179 20.4126 22.6884 21.3884 21.141 21.6284L5.25685 23.9052L5.06422 23.9684C5.03895 24.0094 5.03264 24.0505 5.0358 24.0979L16.72 35.3084C17.8316 36.401 18.3368 37.9705 18.0779 39.5084L15.2989 55.2347V55.2978C15.3147 55.361 15.3716 55.4052 15.4379 55.4052H15.4884L29.7905 47.9052C30.4916 47.5326 31.2747 47.3336 32.0673 47.3336C32.8379 47.3305 33.5958 47.5199 34.2779 47.8736L48.4884 55.2947H48.5168C48.5452 55.3105 48.5768 55.3231 48.6084 55.3262C48.621 55.3326 48.6336 55.3326 48.6463 55.3262H48.7126L48.7757 55.2662L45.9936 39.5368C45.6873 37.9863 46.2021 36.3884 47.3547 35.3084L58.9441 24.0694L58.9757 24L58.9441 23.9715H58.8999C58.8747 23.9589 58.8462 23.9526 58.8178 23.9526L42.8326 21.6284C41.2852 21.3915 39.9526 20.4126 39.2673 19.0073L32.1305 4.73684C32.1337 4.70841 32.1242 4.68315 32.1052 4.6642C32.0831 4.64526 32.0579 4.63894 32.0294 4.63894L32.001 4.61052Z" fill="#9E5A11"/>
</svg>
