<svg width="64" height="63" viewBox="0 0 64 63" fill="none" xmlns="http://www.w3.org/2000/svg">
<path d="M61.1395 40.0999C62.4408 40.0999 63.4963 41.1554 63.4963 42.4567C63.4963 42.4952 63.3592 44.2306 63.22 46.0596L63.1373 47.1553C63.0566 48.2366 62.9848 49.2361 62.9512 49.8075C62.7716 52.7629 61.6247 55.7782 59.8823 57.8767C57.4562 60.8006 54.3653 62.1681 50.1621 62.1775C50.0899 62.1776 50.0093 62.1777 49.9206 62.1779L45.7911 62.1808C45.5823 62.181 45.3682 62.181 45.1491 62.1811H19.0307C18.8117 62.181 18.5976 62.181 18.3887 62.1808L14.2605 62.1779L14.0193 62.1775C9.81301 62.1681 6.72207 60.8006 4.29596 57.8735C2.55672 55.7782 1.40668 52.7629 1.23024 49.8075C1.19558 49.2361 1.12311 48.2366 1.04189 47.1553L0.958826 46.0596C0.819115 44.2306 0.681997 42.4952 0.681997 42.4567C0.681997 41.1554 1.73751 40.0999 3.03879 40.0999C4.27706 40.0999 5.26326 41.064 5.35778 42.2739C5.35778 42.2739 5.843 47.7847 5.94698 49.5239C6.06356 51.449 6.84495 53.5443 7.93513 54.8551C9.47902 56.7172 11.1868 57.445 14.0256 57.4513C14.1206 57.4515 14.2301 57.4516 14.3535 57.4518L19.6063 57.4546C19.9055 57.4546 20.2129 57.4547 20.5278 57.4548H43.6487C43.9636 57.4547 44.2711 57.4546 44.5704 57.4546L49.8246 57.4518L50.1527 57.4513C52.9947 57.445 54.7024 56.7172 56.2431 54.8582C57.3365 53.5443 58.1179 51.449 58.2344 49.5239C58.3353 47.7847 58.8205 42.2739 58.8205 42.2739C58.915 41.064 59.9012 40.0999 61.1395 40.0999ZM31.9962 39.8075C33.3006 39.8075 34.3593 40.8661 34.3593 42.1706V46.2477C34.3593 47.5521 33.3006 48.6108 31.9962 48.6108C30.6918 48.6108 29.6331 47.5521 29.6331 46.2477V42.1706C29.6331 40.8661 30.6918 39.8075 31.9962 39.8075ZM36.0636 0C40.7961 0 44.6747 3.5604 45.2639 8.13221H51.493C58.1065 8.13221 63.4881 13.5138 63.4881 20.1304V31.0543C63.4881 31.8483 63.0911 32.5855 62.4294 33.0267C55.9325 37.3243 48.2225 40.1884 40.1281 41.3101C40.021 41.3258 39.9107 41.3321 39.8035 41.3321C38.7354 41.3321 37.7839 40.6075 37.5129 39.5488C36.8765 37.0408 34.6016 35.2889 31.9801 35.2889C29.3303 35.2889 27.0775 37.003 26.3749 39.5614C26.0598 40.7083 24.9664 41.4456 23.7691 41.2786C15.7315 40.1569 8.05297 37.3054 1.56548 33.0267C0.900663 32.5887 0.503662 31.8483 0.503662 31.0543V20.1304C0.503662 13.5138 5.89783 8.13221 12.5303 8.13221H18.7279C19.3202 3.55725 23.1957 0 27.9282 0H36.0636ZM51.493 12.8584H12.5303C8.50669 12.8584 5.22986 16.1226 5.22986 20.1304V29.7624C10.4035 32.9668 16.349 35.2102 22.5939 36.3098C24.3709 32.8408 27.9786 30.5627 31.9801 30.5627C36.0163 30.5627 39.6082 32.8502 41.3348 36.3381C47.6175 35.2322 53.5851 32.9794 58.7619 29.7624V20.1304C58.7619 16.1226 55.5008 12.8584 51.493 12.8584ZM36.0636 4.72619H27.9282C25.8077 4.72619 24.037 6.17871 23.5076 8.13221H40.481C39.9548 6.17871 38.1809 4.72619 36.0636 4.72619Z" fill="#9E5A11"/>
</svg>
